<mxfile host="app.diagrams.net" modified="2023-05-10T01:15:42.840Z" agent="Mozilla/5.0 (Windows NT 10.0; Win64; x64) AppleWebKit/537.36 (KHTML, like Gecko) Chrome/113.0.0.0 Safari/537.36" version="21.2.3" etag="WI3zbGYnEy95L9HTrmZg" type="github">
  <diagram name="PÃ¡gina-1" id="uY99Cp0-yRXl3R5LheBc">
    <mxGraphModel>
      <root>
        <mxCell id="0" />
        <mxCell id="1" parent="0" />
      </root>
    </mxGraphModel>
  </diagram>
</mxfile>
